# xmcd CD database file
#
# Track frame offsets:
#	150
#	15659
#	36170
#	55365
#	73495
#	96371
#	122350
#	138498
#	152764
#	172525
#	189077
#	213001
#	239272
#	259046
#	274387
#	290481
#	305316
#
# Disc length: 4390 seconds
#
# Revision: 0
# Processed by: cddbd v1.5.2PL0 Copyright (c) Steve Scherf et al.
# Submitted via: CDex 1.51
#
DISCID=ec112411
DTITLE=Brian Lemon - My Shining Hour
DYEAR=2000
DGENRE=Jazz
TTITLE0=My Shining Hour
TTITLE1=A hundred years from today
TTITLE2=It's only a paper moon
TTITLE3=Autumn leaves
TTITLE4=Stars fell from Alabama
TTITLE5=Moonglow
TTITLE6=Blue skies
TTITLE7=Time on my hands
TTITLE8=Stella by starlight
TTITLE9=September in the rain
TTITLE10=Autumn in New York
TTITLE11=Sunday
TTITLE12=How high the moon
TTITLE13=The things we did last summer
TTITLE14=I've got the world on a string
TTITLE15=You and the night and the music
TTITLE16=Time after time
EXTD=YEAR: 2000
EXTT0=
EXTT1=
EXTT2=
EXTT3=
EXTT4=
EXTT5=
EXTT6=
EXTT7=
EXTT8=
EXTT9=
EXTT10=
EXTT11=
EXTT12=
EXTT13=
EXTT14=
EXTT15=
EXTT16=
PLAYORDER=
